<svg width="195" height="24" viewBox="0 0 195 24" fill="none" xmlns="http://www.w3.org/2000/svg">
<g clip-path="url(#clip0_27_4334)">
<path d="M172.68 1.07996H172.44H162.96C162.12 1.07996 161.28 1.79996 161.16 2.63996C161.04 3.47996 161.64 4.19996 162.48 4.19996H171.96L159.24 18.96C158.76 19.44 158.52 20.04 158.4 20.76C158.16 22.44 159.36 23.88 161.04 23.88C161.16 23.88 161.16 23.88 161.28 23.88H171.36C171.6 23.88 171.84 23.76 172.08 23.64C172.92 23.16 173.28 22.32 172.92 21.48C172.68 21 172.2 20.76 171.72 20.76H161.4L173.76 6.35996C174.36 5.75996 174.84 4.91996 174.96 4.07996C175.32 2.51996 174.24 1.19996 172.68 1.07996Z" fill="#6677FF"/>
<path d="M155.52 1.07996C154.68 1.07996 153.96 1.79996 153.72 2.51996L150.96 22.08V22.2C150.84 23.04 151.44 23.76 152.28 23.76C153.12 23.76 153.96 23.04 154.08 22.2L156.84 2.51996C156.84 1.79996 156.24 1.07996 155.52 1.07996Z" fill="#6677FF"/>
<path d="M193.2 1.07996H183.24C181.56 1.07996 180 2.39996 179.76 4.07996L177.48 20.64C177.24 22.32 178.44 23.76 180.12 23.76C180.12 23.76 180.12 23.76 180.24 23.76H189.96C190.8 23.76 191.52 23.04 191.64 22.2C191.76 21.36 191.16 20.76 190.44 20.64H180.72L181.56 14.52H187.08C187.92 14.52 188.64 13.8 188.76 12.96C188.88 12.12 188.28 11.4 187.44 11.4H181.92L183 4.07996H192.72H192.84C193.56 3.95996 194.28 3.35996 194.4 2.51996C194.4 1.79996 193.92 1.19996 193.2 1.07996Z" fill="#6677FF"/>
<path d="M92.8799 20.64C92.7599 20.64 92.7599 20.64 92.7599 20.64L83.0399 20.88L85.1999 2.63995C85.3199 1.79995 84.7199 1.19995 83.8799 1.19995C83.0399 1.19995 82.1999 1.91995 82.1999 2.75995L80.0399 20.88C79.7999 22.56 80.9999 23.88 82.7999 23.88C82.7999 23.88 82.7999 23.88 82.9199 23.88L92.6399 23.64C93.4799 23.52 94.1999 22.92 94.1999 22.08C94.3199 21.36 93.7199 20.64 92.8799 20.64Z" fill="#6677FF"/>
<path d="M38.28 2.63996C38.4 1.79996 37.92 1.19996 37.08 1.07996H27.12C25.44 1.07996 23.88 2.39996 23.64 4.07996L21.36 20.64C21.12 22.32 22.32 23.76 24 23.76C24 23.76 24 23.76 24.12 23.76H33.84C34.68 23.76 35.4 23.04 35.52 22.2C35.64 21.36 35.04 20.76 34.32 20.64H24.6L25.44 14.52H30.96C31.8 14.52 32.52 13.8 32.64 12.96C32.76 12.12 32.16 11.4 31.32 11.4H25.8L26.88 4.07996H36.6H36.72C37.44 4.07996 38.16 3.47996 38.28 2.63996Z" fill="#6677FF"/>
<path d="M76.92 0.959961C76.08 0.959961 75.24 1.67996 75.12 2.51996L73.32 15.36C72.84 18.36 70.08 20.76 67.08 20.76C64.08 20.76 62.04 18.36 62.4 15.48L64.2 2.51996C64.32 1.67996 63.72 0.959961 62.88 0.959961C62.04 0.959961 61.32 1.67996 61.08 2.51996L59.28 15.36V15.48C58.68 20.16 62.04 23.88 66.6 23.88C71.28 23.88 75.6 20.16 76.32 15.48L78.12 2.51996C78.36 1.67996 77.76 0.959961 76.92 0.959961Z" fill="#6677FF"/>
<path d="M55.56 2.27997C54 1.43997 52.32 0.839966 50.28 0.839966C43.9201 0.839966 38.04 5.99997 37.08 12.36C36.12 18.72 40.68 23.88 47.04 23.88C49.2 23.88 51.24 23.28 53.04 22.32C53.64 22.08 54 21.6 54.12 21L55.2 13.44C55.32 12.6 54.72 11.88 53.88 11.88H49.92C49.08 11.88 48.24 12.6 48.12 13.44C48 14.28 48.6 15 49.44 15H51.96L51.24 20.04C50.04 20.52 48.84 20.88 47.52 20.88C42.84 20.88 39.72 17.16 40.32 12.48C40.92 7.79997 45.24 4.07997 49.92 4.07997C51.48 4.07997 52.8 4.55997 54 5.27997C54.24 5.39997 54.48 5.39997 54.72 5.39997C55.56 5.39997 56.4 4.67997 56.52 3.83997C56.52 3.11997 56.16 2.51997 55.56 2.27997Z" fill="#6677FF"/>
<path d="M14.1601 1.07996C14.0401 1.07996 14.0401 1.07996 14.1601 1.07996C11.6401 1.07996 9.24005 1.07996 6.84005 1.07996C4.32005 1.07996 3.00005 2.27996 2.64005 4.79996C2.16005 7.55996 1.80005 10.32 1.44005 13.08C1.08005 15.72 0.720052 18.24 0.360052 20.88C0.240052 22.08 -0.479948 23.76 1.44005 23.76C3.36005 23.76 3.24005 22.08 3.48005 20.76C4.20005 15.96 4.92005 11.16 5.52005 6.23996C5.76005 4.79996 6.24005 4.07996 7.80005 4.19996C9.72005 4.31996 11.6401 4.19996 13.4401 4.19996C13.5601 4.19996 13.6801 4.19996 13.6801 4.19996C15.2401 4.31996 16.3201 5.75996 16.0801 7.31996C15.6001 10.56 11.2801 12 9.48005 12.36C9.12005 12.36 8.76005 12.48 8.52005 12.72C7.80005 13.32 7.56005 14.28 8.04005 15L14.1601 23.28C14.6401 23.88 15.6001 24 16.3201 23.4C17.0401 22.8 17.2801 21.84 16.8001 21.12L12.3601 15.12C11.8801 14.16 12.2401 14.04 13.4401 13.56C16.4401 12.48 18.8401 10.56 19.3201 6.95996C19.8001 3.71996 17.4001 1.07996 14.1601 1.07996Z" fill="#6677FF"/>
<path d="M143.52 1.07996C141 1.07996 138.6 1.07996 136.2 1.07996C133.68 1.07996 132.36 2.27996 132 4.79996C131.52 7.55996 131.16 10.32 130.8 13.08C130.44 15.72 130.08 18.24 129.72 20.88C129.6 22.08 128.88 23.76 130.8 23.76C132.72 23.76 132.6 22.08 132.84 20.76C133.56 15.96 134.28 11.04 134.88 6.23996C135.12 4.79996 135.6 4.07996 137.16 4.19996C139.08 4.31996 141 4.19996 142.8 4.19996C142.92 4.19996 143.04 4.19996 143.04 4.19996C144.6 4.31996 145.68 5.75996 145.44 7.31996C144.96 10.32 140.76 11.88 138.84 12.24C138.48 12.24 138.12 12.36 137.88 12.6C137.16 13.2 136.92 14.16 137.4 14.88L143.52 23.16C144 23.76 144.96 23.88 145.68 23.28C146.4 22.68 146.64 21.72 146.16 21L141.72 15C141.24 14.04 141.6 13.92 142.8 13.44C145.8 12.36 148.2 10.44 148.68 6.83996C149.16 3.71996 146.88 1.07996 143.52 1.07996Z" fill="#6677FF"/>
<path d="M126.24 10.6799C126.12 10.9199 126 11.0399 125.76 11.2799L113.64 20.9999C112.44 21.9599 110.4 21.4799 109.68 20.6399L105.72 15.8399C105 14.9999 105.12 13.7999 105.96 13.0799C106.8 12.3599 108 12.4799 108.72 13.3199L112.08 17.3999L119.4 11.5199L113.28 0.959936C112.56 -0.240063 110.76 -0.240063 110.04 0.959936L98.4 21.1199C97.68 22.3199 98.52 23.8799 99.96 23.8799H123.24C124.68 23.8799 125.52 22.3199 124.8 21.1199L122.04 16.3199L125.76 13.3199C126.72 12.5999 126.96 11.3999 126.24 10.6799Z" fill="#00CC88"/>
</g>
<defs>
<clipPath id="clip0_27_4334">
<rect width="194.4" height="24" fill="white"/>
</clipPath>
</defs>
</svg>
