<svg width="20" height="20" viewBox="0 0 20 20" fill="none" xmlns="http://www.w3.org/2000/svg">
<path fill-rule="evenodd" clip-rule="evenodd" d="M0.041748 8.66663C0.041748 3.90329 3.90341 0.041626 8.66675 0.041626C13.4301 0.041626 17.2917 3.90329 17.2917 8.66663C17.2917 10.8233 16.5001 12.795 15.1917 14.3083L19.7751 18.8916L18.8917 19.775L14.3084 15.1916C12.7427 16.5491 10.739 17.2949 8.66675 17.2916C3.90341 17.2916 0.041748 13.43 0.041748 8.66663ZM8.66675 1.29163C7.69825 1.29163 6.73923 1.48239 5.84446 1.85301C4.94968 2.22364 4.13667 2.76688 3.45184 3.45171C2.767 4.13655 2.22376 4.94956 1.85314 5.84434C1.48251 6.73911 1.29175 7.69813 1.29175 8.66663C1.29175 9.63512 1.48251 10.5941 1.85314 11.4889C2.22376 12.3837 2.767 13.1967 3.45184 13.8815C4.13667 14.5664 4.94968 15.1096 5.84446 15.4802C6.73923 15.8509 7.69825 16.0416 8.66675 16.0416C10.6227 16.0416 12.4986 15.2646 13.8817 13.8815C15.2647 12.4985 16.0417 10.6226 16.0417 8.66663C16.0417 6.71065 15.2647 4.83479 13.8817 3.45171C12.4986 2.06863 10.6227 1.29163 8.66675 1.29163Z" fill="#686A79"/>
</svg>
